<?xml version="1.0" encoding="UTF-8"?>
<svg width="128px" height="42px" viewBox="0 0 128 42" version="1.1" xmlns="http://www.w3.org/2000/svg" xmlns:xlink="http://www.w3.org/1999/xlink">
    <!-- Generator: Sketch 46.1 (44463) - http://www.bohemiancoding.com/sketch -->
    <title>logo_gray</title>
    <desc>Created with Sketch.</desc>
    <defs></defs>
    <g id="Page-1" stroke="none" stroke-width="1" fill="none" fill-rule="evenodd">
        <g id="logo_gray" transform="translate(1.000000, 1.000000)">
            <path d="M16.9328,14.3506 C18.1448,14.6586 19.7608,15.4096 20.8108,16.1386 C21.6418,16.7166 22.4488,17.3756 22.6608,18.0326 C22.7648,18.3566 22.7518,18.9726 22.5008,19.2676 C22.2488,19.5636 21.7778,19.8326 21.4088,19.8326 C21.0728,19.8326 20.7398,19.7886 20.2598,19.4826 C20.0228,19.3306 19.6408,18.9656 19.2128,18.6586 C18.6538,18.2416 18.1118,18.0106 17.7088,17.8126 C17.2058,17.5836 16.8418,17.4016 16.0018,17.1876 C15.1928,16.9806 14.4118,16.8926 13.4738,16.8776 C11.4078,16.8476 10.0688,17.4016 8.5618,18.1656 C7.0808,18.9166 5.5478,20.5716 4.8828,21.6996 C3.7918,23.5496 3.3928,25.3666 3.3928,26.8986 C3.3928,29.0216 3.9498,30.6976 4.8558,32.2016 C5.7058,33.6146 6.8638,34.7676 8.3598,35.6666 C9.9918,36.6476 11.9058,37.0756 13.4238,37.0756 C14.6318,37.0756 15.3948,36.9256 16.1178,36.7286 C16.8378,36.5316 17.4868,36.2786 18.1908,35.9166 C18.4248,35.7856 19.0028,35.4806 19.5748,35.0196 C19.8418,34.7906 20.0968,34.5686 20.2988,34.4536 C20.4998,34.3386 20.7178,34.2806 20.9538,34.2806 C21.3558,34.2806 21.8598,34.4506 22.0918,34.6996 C22.4058,35.0346 22.4858,35.5006 22.4478,35.8546 C22.3878,36.4116 21.7618,37.1116 20.9288,37.7166 C20.1538,38.2796 19.0798,38.8626 17.7898,39.3206 C16.5488,39.7626 15.1158,40.0506 13.4708,40.0506 C11.0178,40.0506 8.7748,39.3796 6.8568,38.2546 C4.8458,37.0746 3.1848,35.3346 2.2228,33.6436 C1.1028,31.6746 0.3958,29.4086 0.3998,26.9116 C0.4058,23.7776 1.5568,21.4896 1.9988,20.6966 C3.2728,18.4126 4.8428,16.9166 6.7888,15.7346 C8.0778,14.9526 10.4088,13.8926 13.4778,13.8926 C14.5638,13.8926 15.5738,14.0056 16.9328,14.3506" id="Fill-1" fill="#989898"></path>
            <path d="M16.9328,14.3506 C18.1448,14.6586 19.7608,15.4096 20.8108,16.1386 C21.6418,16.7166 22.4488,17.3756 22.6608,18.0326 C22.7648,18.3566 22.7518,18.9726 22.5008,19.2676 C22.2488,19.5636 21.7778,19.8326 21.4088,19.8326 C21.0728,19.8326 20.7398,19.7886 20.2598,19.4826 C20.0228,19.3306 19.6408,18.9656 19.2128,18.6586 C18.6538,18.2416 18.1118,18.0106 17.7088,17.8126 C17.2058,17.5836 16.8418,17.4016 16.0018,17.1876 C15.1928,16.9806 14.4118,16.8926 13.4738,16.8776 C11.4078,16.8476 10.0688,17.4016 8.5618,18.1656 C7.0808,18.9166 5.5478,20.5716 4.8828,21.6996 C3.7918,23.5496 3.3928,25.3666 3.3928,26.8986 C3.3928,29.0216 3.9498,30.6976 4.8558,32.2016 C5.7058,33.6146 6.8638,34.7676 8.3598,35.6666 C9.9918,36.6476 11.9058,37.0756 13.4238,37.0756 C14.6318,37.0756 15.3948,36.9256 16.1178,36.7286 C16.8378,36.5316 17.4868,36.2786 18.1908,35.9166 C18.4248,35.7856 19.0028,35.4806 19.5748,35.0196 C19.8418,34.7906 20.0968,34.5686 20.2988,34.4536 C20.4998,34.3386 20.7178,34.2806 20.9538,34.2806 C21.3558,34.2806 21.8598,34.4506 22.0918,34.6996 C22.4058,35.0346 22.4858,35.5006 22.4478,35.8546 C22.3878,36.4116 21.7618,37.1116 20.9288,37.7166 C20.1538,38.2796 19.0798,38.8626 17.7898,39.3206 C16.5488,39.7626 15.1158,40.0506 13.4708,40.0506 C11.0178,40.0506 8.7748,39.3796 6.8568,38.2546 C4.8458,37.0746 3.1848,35.3346 2.2228,33.6436 C1.1028,31.6746 0.3958,29.4086 0.3998,26.9116 C0.4058,23.7776 1.5568,21.4896 1.9988,20.6966 C3.2728,18.4126 4.8428,16.9166 6.7888,15.7346 C8.0778,14.9526 10.4088,13.8926 13.4778,13.8926 C14.5638,13.8926 15.5738,14.0056 16.9328,14.3506 Z" id="Stroke-3" stroke="#989898" stroke-width="0.8" stroke-linecap="round" stroke-linejoin="round"></path>
            <path d="M41.0325,13.893 C33.8085,13.893 27.9535,19.748 27.9535,26.972 C27.9535,34.195 33.8085,40.051 41.0325,40.051 C48.2565,40.051 54.1115,34.195 54.1115,26.972 C54.1115,19.748 48.2565,13.893 41.0325,13.893 M41.0325,16.879 C46.5975,16.879 51.1265,21.407 51.1265,26.972 C51.1265,32.538 46.5975,37.065 41.0325,37.065 C35.4675,37.065 30.9395,32.538 30.9395,26.972 C30.9395,21.407 35.4675,16.879 41.0325,16.879" id="Fill-5" fill="#989898"></path>
            <path d="M41.0325,13.893 C33.8085,13.893 27.9535,19.748 27.9535,26.972 C27.9535,34.195 33.8085,40.051 41.0325,40.051 C48.2565,40.051 54.1115,34.195 54.1115,26.972 C54.1115,19.748 48.2565,13.893 41.0325,13.893 Z M41.0325,16.879 C46.5975,16.879 51.1265,21.407 51.1265,26.972 C51.1265,32.538 46.5975,37.065 41.0325,37.065 C35.4675,37.065 30.9395,32.538 30.9395,26.972 C30.9395,21.407 35.4675,16.879 41.0325,16.879 L41.0325,16.879 Z" id="Stroke-7" stroke="#989898" stroke-width="0.8" stroke-linecap="round" stroke-linejoin="round"></path>
            <path d="M64.8186,39.6577 C64.5386,39.9377 64.1856,40.0767 63.7586,40.0767 C63.3316,40.0767 62.9776,39.9377 62.6996,39.6577 C62.4206,39.3797 62.2806,39.0257 62.2806,38.5987 L62.2806,1.9077 C62.2806,1.4807 62.4206,1.1277 62.6996,0.8477 C62.9776,0.5697 63.3316,0.4287 63.7586,0.4287 C64.1856,0.4287 64.5386,0.5697 64.8186,0.8477 C65.0966,1.1277 65.2366,1.4807 65.2366,1.9077 L65.2366,38.5987 C65.2366,39.0257 65.0966,39.3797 64.8186,39.6577" id="Fill-9" fill="#989898"></path>
            <path d="M64.8186,39.6577 C64.5386,39.9377 64.1856,40.0767 63.7586,40.0767 C63.3316,40.0767 62.9776,39.9377 62.6996,39.6577 C62.4206,39.3797 62.2806,39.0257 62.2806,38.5987 L62.2806,1.9077 C62.2806,1.4807 62.4206,1.1277 62.6996,0.8477 C62.9776,0.5697 63.3316,0.4287 63.7586,0.4287 C64.1856,0.4287 64.5386,0.5697 64.8186,0.8477 C65.0966,1.1277 65.2366,1.4807 65.2366,1.9077 L65.2366,38.5987 C65.2366,39.0257 65.0966,39.3797 64.8186,39.6577 Z" id="Stroke-11" stroke="#989898" stroke-width="0.8" stroke-linecap="round" stroke-linejoin="round"></path>
            <path d="M74.51,39.6284 C74.23,39.9084 73.877,40.0474 73.45,40.0474 C73.023,40.0474 72.669,39.9084 72.391,39.6284 C72.112,39.3504 71.972,38.9964 71.972,38.5694 L71.972,1.8784 C71.972,1.4514 72.112,1.0984 72.391,0.8184 C72.669,0.5404 73.023,0.3994 73.45,0.3994 C73.877,0.3994 74.23,0.5404 74.51,0.8184 C74.788,1.0984 74.929,1.4514 74.929,1.8784 L74.929,38.5694 C74.929,38.9964 74.788,39.3504 74.51,39.6284" id="Fill-13" fill="#989898"></path>
            <path d="M74.51,39.6284 C74.23,39.9084 73.877,40.0474 73.45,40.0474 C73.023,40.0474 72.669,39.9084 72.391,39.6284 C72.112,39.3504 71.972,38.9964 71.972,38.5694 L71.972,1.8784 C71.972,1.4514 72.112,1.0984 72.391,0.8184 C72.669,0.5404 73.023,0.3994 73.45,0.3994 C73.877,0.3994 74.23,0.5404 74.51,0.8184 C74.788,1.0984 74.929,1.4514 74.929,1.8784 L74.929,38.5694 C74.929,38.9964 74.788,39.3504 74.51,39.6284 Z" id="Stroke-15" stroke="#989898" stroke-width="0.8" stroke-linecap="round" stroke-linejoin="round"></path>
            <path d="M90.4739,18.6626 C88.6239,19.9036 87.1679,21.8566 86.4759,24.2786 L105.9219,24.2786 C105.8199,23.4426 104.7009,21.1646 103.5099,20.0166 C102.6489,19.1856 101.7509,18.3546 100.0409,17.6376 C98.9389,17.1756 97.5089,16.8396 95.9389,16.8796 C94.3039,16.9206 92.4129,17.3606 90.4739,18.6626 M108.6659,26.5296 C108.3389,26.8086 107.3239,26.9396 106.8879,26.9396 L86.1139,26.9396 C86.1139,28.9116 86.6269,30.5656 87.6279,32.2376 C88.5499,33.7786 89.9349,35.0816 91.4829,35.8976 C92.9079,36.6486 94.4419,37.0656 96.2039,37.0656 C97.6299,37.0656 99.9629,36.6306 101.5959,35.4936 C102.8499,34.6206 103.3359,34.1896 104.1719,33.1706 C104.8039,32.6066 105.0759,32.5996 105.4379,32.5996 C105.8009,32.5996 106.1279,32.7306 106.4189,32.9936 C106.7089,33.2566 106.8549,33.5526 106.8549,33.8806 C106.8549,34.2426 106.6929,34.9036 106.3299,35.2316 C105.1659,36.5126 104.4919,37.2976 102.8109,38.2736 C101.1879,39.2166 99.0009,40.0456 96.1839,40.0456 C93.9949,40.0456 92.0339,39.5836 89.9169,38.4486 C87.9109,37.3726 86.1719,35.6786 85.0369,33.8166 C83.8429,31.8596 83.1059,29.5196 83.1059,27.0576 C83.1059,24.3636 83.8729,22.1066 85.0539,20.0856 C86.2339,18.0656 87.7739,16.6526 89.7349,15.5846 C91.6969,14.5176 93.6729,13.8906 95.8899,13.8906 C98.0689,13.8906 100.0899,14.3106 101.9949,15.2366 C103.8049,16.1166 105.5229,17.5986 106.7139,19.2046 C107.5169,20.2866 109.0699,22.9946 109.1569,25.5196 C109.1689,25.9136 108.9929,26.2506 108.6659,26.5296" id="Fill-17" fill="#989898"></path>
            <path d="M90.4739,18.6626 C88.6239,19.9036 87.1679,21.8566 86.4759,24.2786 L105.9219,24.2786 C105.8199,23.4426 104.7009,21.1646 103.5099,20.0166 C102.6489,19.1856 101.7509,18.3546 100.0409,17.6376 C98.9389,17.1756 97.5089,16.8396 95.9389,16.8796 C94.3039,16.9206 92.4129,17.3606 90.4739,18.6626 Z M108.6659,26.5296 C108.3389,26.8086 107.3239,26.9396 106.8879,26.9396 L86.1139,26.9396 C86.1139,28.9116 86.6269,30.5656 87.6279,32.2376 C88.5499,33.7786 89.9349,35.0816 91.4829,35.8976 C92.9079,36.6486 94.4419,37.0656 96.2039,37.0656 C97.6299,37.0656 99.9629,36.6306 101.5959,35.4936 C102.8499,34.6206 103.3359,34.1896 104.1719,33.1706 C104.8039,32.6066 105.0759,32.5996 105.4379,32.5996 C105.8009,32.5996 106.1279,32.7306 106.4189,32.9936 C106.7089,33.2566 106.8549,33.5526 106.8549,33.8806 C106.8549,34.2426 106.6929,34.9036 106.3299,35.2316 C105.1659,36.5126 104.4919,37.2976 102.8109,38.2736 C101.1879,39.2166 99.0009,40.0456 96.1839,40.0456 C93.9949,40.0456 92.0339,39.5836 89.9169,38.4486 C87.9109,37.3726 86.1719,35.6786 85.0369,33.8166 C83.8429,31.8596 83.1059,29.5196 83.1059,27.0576 C83.1059,24.3636 83.8729,22.1066 85.0539,20.0856 C86.2339,18.0656 87.7739,16.6526 89.7349,15.5846 C91.6969,14.5176 93.6729,13.8906 95.8899,13.8906 C98.0689,13.8906 100.0899,14.3106 101.9949,15.2366 C103.8049,16.1166 105.5229,17.5986 106.7139,19.2046 C107.5169,20.2866 109.0699,22.9946 109.1569,25.5196 C109.1689,25.9136 108.9929,26.2506 108.6659,26.5296 Z" id="Stroke-19" stroke="#989898" stroke-width="0.8" stroke-linecap="round" stroke-linejoin="round"></path>
            <path d="M125.2317,37.2451 C124.3017,37.2451 124.9987,37.2661 123.8947,37.2661 C122.6307,37.2661 121.8437,36.7181 121.4197,36.3541 C120.9607,35.9571 120.5537,35.0851 120.5537,34.0841 L120.5537,16.6501 L125.1347,16.6501 C125.5287,16.6501 125.8657,16.5191 126.1447,16.2561 C126.4237,15.9941 126.5637,15.6651 126.5637,15.2701 C126.5637,14.8761 126.4237,14.5481 126.1447,14.2851 C125.8657,14.0221 125.5287,13.8911 125.1347,13.8911 L120.5537,13.8911 L120.5537,13.8841 L120.5537,9.3471 C120.5537,8.9201 120.4147,8.5671 120.1347,8.2871 C119.8557,8.0091 119.5027,7.8691 119.0767,7.8691 C118.6487,7.8691 118.2947,8.0091 118.0157,8.2871 C117.7367,8.5671 117.5977,8.9201 117.5977,9.3471 L117.5977,13.8841 L113.0157,13.8841 C112.6217,13.8841 112.2847,14.0151 112.0057,14.2781 C111.7257,14.5411 111.5867,14.8691 111.5867,15.2631 C111.5867,15.6581 111.7257,15.9861 112.0057,16.2491 C112.2847,16.5121 112.6217,16.6431 113.0157,16.6431 L117.5977,16.6431 L117.5977,34.2321 C117.5977,36.0391 118.0317,37.0551 118.9277,38.0891 C120.0647,39.4011 121.9507,40.0511 123.7427,40.0511 C123.7427,40.0511 124.1047,40.0551 125.2347,40.0221 C125.8217,40.0051 126.5727,39.4921 126.5727,38.6301 C126.5727,37.7101 125.7897,37.2451 125.2317,37.2451" id="Fill-21" fill="#989898"></path>
            <path d="M125.2317,37.2451 C124.3017,37.2451 124.9987,37.2661 123.8947,37.2661 C122.6307,37.2661 121.8437,36.7181 121.4197,36.3541 C120.9607,35.9571 120.5537,35.0851 120.5537,34.0841 L120.5537,16.6501 L125.1347,16.6501 C125.5287,16.6501 125.8657,16.5191 126.1447,16.2561 C126.4237,15.9941 126.5637,15.6651 126.5637,15.2701 C126.5637,14.8761 126.4237,14.5481 126.1447,14.2851 C125.8657,14.0221 125.5287,13.8911 125.1347,13.8911 L120.5537,13.8911 L120.5537,13.8841 L120.5537,9.3471 C120.5537,8.9201 120.4147,8.5671 120.1347,8.2871 C119.8557,8.0091 119.5027,7.8691 119.0767,7.8691 C118.6487,7.8691 118.2947,8.0091 118.0157,8.2871 C117.7367,8.5671 117.5977,8.9201 117.5977,9.3471 L117.5977,13.8841 L113.0157,13.8841 C112.6217,13.8841 112.2847,14.0151 112.0057,14.2781 C111.7257,14.5411 111.5867,14.8691 111.5867,15.2631 C111.5867,15.6581 111.7257,15.9861 112.0057,16.2491 C112.2847,16.5121 112.6217,16.6431 113.0157,16.6431 L117.5977,16.6431 L117.5977,34.2321 C117.5977,36.0391 118.0317,37.0551 118.9277,38.0891 C120.0647,39.4011 121.9507,40.0511 123.7427,40.0511 C123.7427,40.0511 124.1047,40.0551 125.2347,40.0221 C125.8217,40.0051 126.5727,39.4921 126.5727,38.6301 C126.5727,37.7101 125.7897,37.2451 125.2317,37.2451 Z" id="Stroke-23" stroke="#989898" stroke-width="0.8" stroke-linecap="round" stroke-linejoin="round"></path>
        </g>
    </g>
</svg>